<?xml version="1.0" standalone="no"?>
<!DOCTYPE svg PUBLIC "-//W3C//DTD SVG 20010904//EN"
 "http://www.w3.org/TR/2001/REC-SVG-20010904/DTD/svg10.dtd">
<svg version="1.0" xmlns="http://www.w3.org/2000/svg"
 width="256.000000pt" height="256.000000pt" viewBox="0 0 256.000000 256.000000"
 preserveAspectRatio="xMidYMid meet">
<metadata>
Created by potrace 1.11, written by Peter Selinger 2001-2013
</metadata>
<g transform="translate(0.000000,256.000000) scale(0.100000,-0.100000)"
fill="#000000" stroke="none">
<path d="M919 2460 c-2 -20 -5 -36 -9 -45 -3 -6 -3 -5 -15 -60 -12 -55 -11
-52 -30 -125 -9 -36 -19 -76 -21 -90 -3 -14 -10 -43 -16 -65 -5 -22 -11 -47
-13 -56 -2 -9 -8 -33 -14 -55 -12 -45 -44 -182 -47 -204 -4 -24 -46 -193 -52
-210 -3 -8 -7 -26 -9 -40 -2 -14 -8 -39 -14 -56 -5 -17 -12 -42 -14 -55 -3
-13 -7 -35 -10 -49 -3 -14 -7 -34 -10 -45 -2 -11 -11 -46 -19 -77 -9 -32 -18
-72 -21 -89 -3 -18 -8 -36 -11 -40 -3 -5 -7 -21 -9 -36 -3 -16 -16 -73 -30
-128 -14 -55 -27 -111 -30 -125 -3 -14 -18 -79 -35 -145 -17 -66 -32 -129 -34
-140 -1 -11 -6 -29 -9 -40 -3 -11 -8 -33 -11 -48 -3 -16 -10 -43 -15 -60 -6
-18 -12 -43 -15 -57 -2 -14 -5 -29 -6 -35 -6 -28 2 -34 55 -34 61 0 67 6 80
74 9 44 11 53 15 60 3 6 3 5 15 60 4 22 9 45 11 50 2 6 5 19 7 30 3 11 10 40
17 65 7 25 14 56 16 70 3 14 8 34 11 45 3 11 7 29 9 40 1 11 21 94 44 185 23
91 43 174 44 185 2 11 8 38 14 60 19 65 78 312 88 368 3 16 12 46 19 67 7 21
12 40 9 43 -2 2 2 23 11 46 8 23 14 45 14 49 -1 4 0 9 1 12 1 3 3 12 5 20 4
20 37 157 90 375 24 99 49 203 55 230 6 28 13 59 17 69 4 15 1 18 -16 13 -11
-3 -21 -1 -21 4 0 5 -20 9 -45 9 -38 0 -45 -3 -46 -20z"/>
<path d="M260 2433 c-52 -26 -89 -79 -115 -163 -13 -42 -18 -105 -21 -260 -9
-446 -11 -494 -28 -540 -19 -50 -41 -79 -73 -91 -20 -8 -22 -14 -21 -84 1 -68
3 -78 22 -85 31 -11 53 -40 72 -90 14 -38 17 -96 19 -357 4 -374 8 -420 49
-508 41 -87 103 -133 174 -126 8 1 12 24 12 81 0 77 -1 80 -25 86 -33 8 -73
57 -80 97 -3 18 -7 45 -10 62 -2 16 -5 158 -5 315 -1 157 -6 310 -12 340 -13
72 -43 140 -74 167 -20 17 -22 23 -12 30 40 24 77 103 93 201 3 18 6 160 7
315 1 155 5 300 10 322 15 72 38 111 74 128 35 17 36 19 36 102 0 81 -1 84
-24 82 -13 -1 -43 -12 -68 -24z"/>
<path d="M2210 2335 l0 -83 30 -10 c36 -13 66 -60 80 -127 5 -27 12 -189 14
-360 4 -349 11 -392 73 -465 19 -22 30 -40 25 -40 -16 0 -61 -72 -78 -125 -16
-50 -22 -195 -25 -551 -1 -219 -20 -285 -89 -314 -30 -12 -30 -13 -30 -90 0
-86 6 -94 55 -76 58 21 91 48 117 94 52 95 59 157 63 552 1 157 5 296 8 308
12 48 43 98 73 117 31 19 32 22 32 93 0 67 -2 74 -23 82 -26 10 -57 50 -75
100 -9 25 -13 122 -15 338 -4 346 -7 393 -38 481 -32 94 -93 152 -164 157
l-33 2 0 -83z"/>
<path d="M1084 2135 c-3 -11 -26 -94 -30 -110 -1 -5 -14 -50 -29 -100 -14 -49
-28 -97 -30 -105 -2 -8 -13 -45 -25 -83 -12 -37 -23 -75 -25 -85 -2 -9 -4 -17
-5 -17 -1 0 -3 -7 -5 -15 -1 -8 -28 -103 -58 -210 -96 -336 -108 -381 -111
-395 -1 -5 -5 -16 -9 -22 -5 -7 -6 -13 -4 -13 3 0 -10 -48 -28 -107 -18 -60
-29 -110 -24 -113 4 -3 38 -5 75 -5 50 1 68 5 70 16 1 7 21 79 44 159 40 136
47 164 49 183 1 4 5 7 11 7 5 0 7 -6 4 -14 -3 -8 -1 -17 5 -21 8 -4 11 17 11
64 0 53 12 113 51 252 28 101 52 186 54 189 2 4 7 20 10 36 12 67 42 146 48
129 4 -9 7 -23 7 -32 0 -8 6 -29 14 -46 7 -18 23 -68 35 -112 13 -44 26 -89
31 -100 4 -11 18 -56 30 -100 12 -44 26 -90 32 -101 7 -16 6 -29 -5 -50 -21
-42 -19 -102 5 -126 14 -14 23 -16 32 -9 9 8 16 5 24 -12 9 -19 36 -108 48
-157 1 -8 13 -46 26 -85 l23 -69 73 -1 c40 0 77 4 81 10 4 5 27 69 50 140 24
72 49 139 56 150 7 12 15 41 19 65 9 64 26 75 26 17 0 -26 4 -47 9 -47 5 0 8
19 6 43 -3 45 10 81 26 72 5 -4 9 -30 9 -60 0 -30 4 -56 8 -59 10 -6 8 116 -2
132 -9 15 -36 16 -36 1 0 -5 -4 -7 -10 -4 -6 4 -6 12 0 23 12 22 102 293 103
310 1 27 17 9 31 -35 25 -79 74 -214 80 -220 3 -4 6 -22 6 -42 0 -24 -3 -32
-9 -22 -7 11 -13 9 -30 -8 -16 -16 -21 -33 -21 -68 1 -49 22 -94 35 -73 4 6
13 9 20 6 18 -7 22 10 19 79 -2 45 -1 55 7 42 6 -9 12 -25 14 -35 2 -9 9 -30
16 -47 7 -16 13 -32 14 -35 1 -3 4 -12 7 -20 29 -79 97 -270 102 -286 8 -25
21 -29 96 -29 65 0 65 -14 4 155 -25 69 -47 130 -48 135 -1 6 -9 26 -17 45 -9
19 -24 60 -34 90 -10 30 -25 70 -33 89 -8 18 -15 39 -17 45 -1 6 -7 22 -12 36
-12 29 -50 131 -132 355 l-59 160 -36 3 c-20 2 -36 -1 -36 -7 0 -5 -4 -20 -9
-33 -5 -13 -10 -27 -11 -33 -2 -5 -16 -45 -31 -87 -15 -43 -25 -78 -22 -78 3
0 1 -6 -4 -12 -10 -12 -54 -138 -59 -166 -1 -8 -6 -21 -10 -30 -4 -9 -20 -53
-35 -97 -20 -59 -27 -72 -28 -51 -2 51 -15 17 -17 -44 -1 -32 -6 -66 -12 -76
-8 -14 -10 -12 -17 12 -5 16 -9 31 -10 34 -1 3 -5 25 -9 48 -5 24 -11 40 -16
35 -7 -8 -24 -69 -35 -130 -4 -18 -10 -33 -15 -33 -6 0 -26 59 -36 110 -2 8
-7 23 -13 35 -5 11 -26 76 -46 145 -20 69 -43 142 -51 163 -7 20 -12 37 -9 37
2 0 -4 20 -15 44 -10 24 -16 47 -13 50 4 3 1 6 -6 6 -7 0 -10 4 -7 9 4 6 -42
170 -72 251 -3 8 -6 20 -7 26 -2 7 -13 44 -25 83 l-23 71 -35 -2 c-19 -1 -36
-7 -38 -13z m454 -972 c-16 -20 -29 -5 -22 25 11 53 17 58 25 22 4 -21 3 -40
-3 -47z m-235 27 c4 -15 0 -20 -14 -20 -17 0 -18 3 -9 20 6 11 12 20 14 20 2
0 6 -9 9 -20z m661 4 c9 -23 7 -67 -4 -84 -21 -34 -50 43 -30 80 13 24 26 26
34 4z m-650 -60 c9 -25 7 -34 -9 -34 -16 0 -38 34 -28 44 12 11 31 6 37 -10z
m243 -10 c5 -15 -7 -67 -29 -123 -10 -25 -11 -24 -23 24 -19 72 -7 114 33 115
7 0 15 -7 19 -16z"/>
<path d="M1202 1223 c-36 -31 -30 -136 8 -146 13 -3 21 2 26 15 3 11 3 22 0
25 -3 4 -6 1 -6 -5 0 -18 -27 -14 -34 4 -11 27 -7 33 22 31 24 -2 27 2 28 29
1 17 -4 38 -11 48 -12 15 -14 15 -33 -1z m31 -33 c4 -16 0 -20 -19 -20 -26 0
-27 1 -18 24 9 22 31 20 37 -4z"/>
<path d="M1840 1222 c-22 -24 -18 -121 5 -138 14 -10 22 -11 32 -3 15 13 18
33 4 25 -16 -10 -41 6 -41 26 0 16 5 19 24 14 19 -5 25 -1 28 18 10 50 -24 87
-52 58z m35 -33 c0 -7 -8 -15 -17 -17 -18 -3 -25 18 -11 32 10 10 28 1 28 -15z"/>
<path d="M995 1166 c2 -36 6 -70 10 -75 9 -16 55 -9 56 9 4 64 3 123 -3 127
-5 2 -8 -20 -8 -49 0 -29 -4 -59 -9 -67 -17 -26 -31 1 -31 60 0 32 -4 59 -9
59 -5 0 -7 -29 -6 -64z"/>
<path d="M1088 1167 c-2 -32 0 -66 4 -75 8 -21 8 -20 12 51 2 32 6 60 9 64 15
14 32 -18 30 -59 0 -23 3 -50 7 -58 7 -12 7 68 1 128 0 7 -13 11 -30 10 -28
-2 -30 -4 -33 -61z"/>
<path d="M1451 698 c-8 -23 1 -65 13 -60 3 1 10 2 15 2 14 0 23 37 16 60 -9
27 -34 25 -44 -2z"/>
<path d="M1539 703 c-6 -70 -4 -77 22 -63 19 11 25 46 11 65 -12 17 -32 16
-33 -2z"/>
</g>
</svg>
